# xmcd
#
# Track frame offsets: 
#        150
#        14482
#        61094
#        73646
#        85896
#        97463
#        109605
#        121568
#        134123
#        147304
#        158270
#        168695
#        180737
#        192693
#        204726
#        219082
#        230918
#        243150
#        257697
#        270317
#        284392
#        296699
#        308052
#        319383
#
# Disc length: 4421 seconds
#
# Revision: 3
# Processed by: cddbd v1.5.2PL0 Copyright (c) Steve Scherf et al.
# Submitted via: ExactAudioCopyFreeDBPlugin 1.0
#
DISCID=6e114318
DTITLE=Various Artist - The Big Horn:  The History of the Honkin' and
DTITLE=Screamin' Saxophone [Proper Records]
DYEAR=2003
DGENRE=Rhythm and Blues
TTITLE0=Illinois Jacquet - Flying Home
TTITLE1=Illinois Jacquet - Blues
TTITLE2=Big Jim Wynn - Rock Woogie
TTITLE3=Big Jim Wynn - West Coast Lover
TTITLE4=Pazuzza Simon - Raisin' the Roof
TTITLE5=Arnett Cobb - Cobb's Corner
TTITLE6=Arnett Cobb - Go, Red, Go
TTITLE7=Arnett Cobb - Smooth Sailing
TTITLE8=Arnet Cobb - Open House
TTITLE9=Morris Lane - Down the Lane
TTITLE10=Morris Lane - Blue Jeans
TTITLE11=Morris Lane - Bobby's Boogie
TTITLE12=Dick Davis - Screaming Boogie
TTITLE13=Wild Bill Moore - We're Gonna Rock, We're Gonna Roll
TTITLE14=Wild Bill Moore - Bubbles
TTITLE15=Wild Bill Moore - Balancing with Bill
TTITLE16=Wild Bill Moore - Hey Spo-Dee-O-Dee
TTITLE17=Paul Williams - 35-30 (Thirty-Five-Thirty)
TTITLE18=Paul Williams - Walkin' Around
TTITLE19=Paul Williams - The Hucklebuck
TTITLE20=Paul Williams - He Knows How to Hucklebuck
TTITLE21=Paul Williams - Back Bender
TTITLE22=Jack McVea - Jack Frost
TTITLE23=Weasel Parker - Typhoon
EXTD=
EXTT0=
EXTT1=
EXTT2=
EXTT3=
EXTT4=
EXTT5=
EXTT6=
EXTT7=
EXTT8=
EXTT9=
EXTT10=
EXTT11=
EXTT12=
EXTT13=
EXTT14=
EXTT15=
EXTT16=
EXTT17=
EXTT18=
EXTT19=
EXTT20=
EXTT21=
EXTT22=
EXTT23=
PLAYORDER=
